<svg width="111" height="32" viewBox="0 0 111 40" xmlns="http://www.w3.org/2000/svg">
  <g fill="#FF5470">
    <path
      d="M2.28571 28.5461L4.66677 27.8325L4.95928 19.5675C4.95928 19.0702 4.91981 18.7473 4.84082 18.5991C4.76184 18.453 4.56293 18.2876 4.24556 18.1048L2.74935 17.2887L3.03016 15.4064C4.65361 15.0949 8.69325 13.5577 9.77116 13.1423C9.80512 13.1289 9.84153 13.1228 9.87798 13.1245C9.91446 13.1262 9.95017 13.1355 9.98276 13.152C10.0154 13.1684 10.0441 13.1916 10.0671 13.2199C10.0901 13.2482 10.1069 13.2811 10.1163 13.3164C10.2845 13.9453 10.4205 15.4649 10.4191 16.3059L10.384 26.7136C10.384 27.1903 10.4181 27.5077 10.4864 27.6657C10.5546 27.8236 10.7472 27.9938 11.0641 28.1761L12.7241 29.1312L12.5881 31.682H2.38809L2.28571 28.5461Z"
    />

    <path
      d="M11.3994 28.4478L13.5084 27.8363V19.5715C13.5084 19.0742 13.4733 18.7508 13.406 18.6031C13.3387 18.4554 13.1559 18.2916 12.8619 18.1088L11.3657 17.2927L11.4681 14.7434L12.3851 14.5723C15.1738 14.0058 17.237 13.7001 18.5747 13.6553C18.7547 14.1321 18.9014 14.6208 19.0135 15.1179C20.0274 14.6312 21.079 14.2276 22.1581 13.9112C22.9382 13.6865 23.7449 13.5665 24.5568 13.5544C25.4104 13.5473 26.2565 13.715 27.0431 14.0472C27.8143 14.3768 28.3925 14.8131 28.7776 15.3563C29.8942 14.7901 31.0611 14.3289 32.2631 13.9785C33.2201 13.7066 34.2094 13.5639 35.2043 13.5544C37.0636 13.5544 38.4355 14.0872 39.3198 15.153C40.2042 16.2187 40.6465 17.8398 40.6465 20.016V26.7147C40.6465 27.1913 40.6802 27.5088 40.7474 27.6668C40.8162 27.8262 41.0077 27.9959 41.3325 28.1772L42.9587 29.1308L42.8227 31.6814H33.5721L33.4024 28.4508L35.0345 27.9753V21.5445C35.0476 20.8463 35.0194 20.1478 34.9497 19.4529C34.9293 19.2588 34.8688 19.0709 34.7721 18.9012C34.6754 18.7316 34.5448 18.5837 34.3882 18.4671C34.0713 18.2293 33.5384 18.1099 32.7895 18.1088C32.2046 18.1088 31.2182 18.2111 29.8307 18.4159C29.8843 18.9471 29.9073 19.4809 29.8995 20.0146V26.7131C29.8995 27.1899 29.9337 27.5074 30.0018 27.6652C30.0692 27.8246 30.2738 27.9943 30.6132 28.1758L32.2805 29.1279L32.1445 31.6786H22.8264L22.6553 28.4478L24.2891 27.9723V21.5445C24.3022 20.8349 24.2734 20.1253 24.2027 19.4192C24.1838 19.2272 24.1239 19.0412 24.0274 18.8739C23.9306 18.7068 23.7995 18.5621 23.6425 18.4496C23.3237 18.2225 22.802 18.1088 22.0776 18.1088C21.1071 18.1268 20.1402 18.2296 19.1875 18.4159V26.7131C19.1875 27.1899 19.2218 27.5074 19.29 27.6652C19.3581 27.8232 19.539 27.9935 19.8325 28.1758L21.5 29.1308L21.364 31.6814H11.5646L11.3994 28.4478Z"
    />

    <path
      d="M42.6548 30.8454C41.7265 29.9951 41.262 28.9016 41.261 27.5648C41.261 25.7737 42.1625 24.3677 43.9652 23.3467C45.7682 22.3258 48.392 21.7477 51.8369 21.6122C51.8369 20.5475 51.752 19.7595 51.5823 19.2486C51.5154 19.0168 51.3986 18.8022 51.2399 18.6202C51.0812 18.4383 50.8846 18.2934 50.6639 18.1956C50.2251 18.0025 49.5464 17.9031 48.6411 17.9031C47.9818 17.8867 47.3222 17.9209 46.6681 18.0055L45.2742 20.7595L42.7572 20.5898C42.364 18.7274 42.0914 16.8417 41.9411 14.9443C43.2997 14.491 44.6926 14.1487 46.1064 13.9205C47.5053 13.6813 48.9215 13.5566 50.3407 13.5475C52.7441 13.5475 54.4671 14.018 55.5093 14.9589C56.5517 15.8998 57.0734 17.4599 57.0743 19.6392V26.7473C57.0743 27.1559 57.1138 27.4396 57.1928 27.5985C57.3215 27.8026 57.5043 27.9671 57.7209 28.0738L59.081 28.8564L58.945 30.9654C56.3123 31.5767 54.2379 31.918 52.7218 31.9891C52.6764 31.8531 52.6076 31.6104 52.517 31.2579C52.4264 30.9053 52.3473 30.5734 52.28 30.2546C51.3738 30.832 50.3964 31.2891 49.3724 31.6147C48.4031 31.9393 47.389 32.1101 46.3667 32.1207C44.8224 32.1207 43.585 31.6956 42.6548 30.8454ZM51.9392 27.3602L51.8032 24.7757C51.2591 24.73 50.8965 24.7069 50.7151 24.7069C49.9973 24.7148 49.281 24.7759 48.5723 24.8899C47.916 24.9796 47.268 25.1219 46.6344 25.3154C46.5695 25.5827 46.5351 25.8565 46.5321 26.1315C46.5321 26.814 46.7193 27.3411 47.0938 27.7125C47.4681 28.0841 47.9839 28.2713 48.6411 28.2742C49.547 28.2772 50.6463 27.9725 51.9392 27.3602Z"
    />

    <path
      d="M58.6863 38.2083C57.3591 37.392 56.6962 36.1909 56.6972 34.6045C56.6972 32.9255 57.4679 31.4517 59.0095 30.183C58.5346 29.7063 58.2967 29.1846 58.2957 28.6182C58.2957 27.8019 58.8286 26.6461 59.8944 25.1504C58.034 24.1752 57.1042 22.4973 57.1053 20.1162C57.1053 18.0306 57.8136 16.4154 59.2303 15.2707C60.6471 14.126 62.6947 13.5536 65.3731 13.5536C67.2549 13.5536 68.7965 13.8369 69.9978 14.4034L74.0798 13.1456H75.674V18.0758H73.0209C73.1319 18.6248 73.1887 19.1832 73.1906 19.7433C73.1906 21.8289 72.4882 23.4157 71.083 24.5038C69.6779 25.592 67.6148 26.1362 64.8934 26.1362C64.0499 26.143 63.2076 26.0746 62.3764 25.9314V26.4082C62.3655 26.5673 62.4039 26.7258 62.486 26.8627C62.5681 26.9994 62.6901 27.1077 62.8356 27.1732C63.1418 27.3204 63.8048 27.4621 64.8246 27.5987L67.8858 28.0375C70.2894 28.3778 71.9499 28.9672 72.8674 29.8057C73.7849 30.6443 74.2441 31.7212 74.2452 33.0365C74.2452 35.0764 73.4061 36.652 71.7279 37.7636C70.05 38.8751 67.6695 39.4305 64.5863 39.4295C61.98 39.4314 60.0133 39.0244 58.6863 38.2083ZM68.5323 35.3183C68.6815 34.9755 68.751 34.6034 68.7356 34.23C68.7356 33.6859 68.5406 33.2721 68.1505 32.9883C67.7606 32.7046 67.0688 32.4949 66.0752 32.3594L64.987 32.1897C63.9895 32.0757 62.9808 31.9166 61.961 31.7129C61.8424 32.1922 61.7738 32.6823 61.7562 33.1755C61.742 33.5518 61.8375 33.9239 62.031 34.2469C62.2244 34.5699 62.5075 34.8297 62.8459 34.9949C63.5712 35.3918 64.6706 35.5903 66.1439 35.5903C67.1931 35.5903 67.9892 35.4995 68.5323 35.3183ZM67.0346 22.5939C67.1528 22.1933 67.2384 21.7839 67.2906 21.3695C67.3658 20.8744 67.4053 20.3743 67.4091 19.8734C67.4091 18.8525 67.1882 18.0929 66.7465 17.5948C66.3048 17.0964 65.6189 16.8468 64.6886 16.8459C64.1835 16.853 63.681 16.9218 63.1924 17.0506C63.0489 17.4348 62.9508 17.8343 62.9 18.2412C62.823 18.7362 62.7834 19.2364 62.7814 19.7373C62.7814 20.7797 62.9969 21.5504 63.428 22.0496C63.8589 22.549 64.5161 22.798 65.3994 22.7971C65.9501 22.7906 66.4984 22.7245 67.0346 22.5996V22.5939Z"
    />

    <path
      d="M76.0981 29.6726C74.6579 28.0637 73.9379 25.842 73.9379 23.0077C73.9379 21.0341 74.2893 19.3394 74.9923 17.9237C75.6416 16.5654 76.6842 15.4336 77.9848 14.6753C79.2778 13.9265 80.7856 13.5525 82.5086 13.5535C85.069 13.5535 87.0357 14.3696 88.4085 16.0019C89.7814 17.6341 90.4332 19.9577 90.364 22.9726L80.0251 24.8738C80.343 25.8254 80.791 26.5226 81.3692 26.9654C81.9474 27.408 82.7108 27.6303 83.6596 27.6322C84.45 27.6156 85.2366 27.5175 86.007 27.3398C86.9429 27.1391 87.8632 26.8722 88.761 26.5411L89.5436 29.905C88.7041 30.5399 87.6158 31.0611 86.279 31.4686C84.9681 31.8728 83.6041 32.0794 82.2321 32.0815C79.5819 32.0853 77.5373 31.2823 76.0981 29.6726ZM84.7872 20.1161C84.7415 19.2551 84.4977 18.6262 84.056 18.2293C83.6142 17.8326 82.9945 17.6341 82.197 17.6341C81.5633 17.6306 80.9328 17.7222 80.3264 17.9061C79.8449 19.0447 79.624 20.2765 79.6799 21.5113L84.7872 20.1161Z"
    />

    <path
      d="M89.3121 28.4148L91.4211 27.8019V19.572C91.4211 19.0747 91.386 18.7515 91.3188 18.6038C91.2516 18.4561 91.0688 18.2923 90.7747 18.1093L89.2786 17.2933L89.3809 14.744L90.1282 14.608C93.0982 14.023 95.2409 13.7056 96.5562 13.6559C96.7453 14.1641 96.8921 14.687 96.995 15.2194C98.0873 14.6955 99.2189 14.2578 100.38 13.9104C101.181 13.6822 102.01 13.5622 102.844 13.5535C106.452 13.5535 108.256 15.7074 108.256 20.0151V26.6801C108.256 27.1554 108.291 27.4744 108.358 27.6322C108.425 27.7902 108.618 27.9613 108.936 28.1428L110.574 29.0949L110.427 31.6455H101.045L100.875 28.4148L102.541 27.9379V21.5113C102.558 20.7956 102.524 20.0796 102.439 19.3688C102.414 19.1807 102.351 18.9996 102.255 18.836C102.159 18.6726 102.031 18.53 101.879 18.4166C101.572 18.1893 101.035 18.0758 100.27 18.0758C99.2261 18.1032 98.1874 18.2302 97.1677 18.4545V26.6845C97.1677 27.1599 97.2028 27.4787 97.27 27.6366C97.3372 27.7946 97.5186 27.9657 97.8141 28.1471L99.4799 29.0992L99.3439 31.65H89.4818L89.3121 28.4148Z"
    />

    <path
      d="M6.84946 12.5518C10.3155 12.5518 13.1254 9.742 13.1254 6.27591C13.1254 2.80982 10.3155 0 6.84946 0C3.38337 0 0.573547 2.80982 0.573547 6.27591C0.573547 9.742 3.38337 12.5518 6.84946 12.5518Z"
    />
  </g>
</svg>